<mxfile host="app.diagrams.net" agent="Mozilla/5.0 (Windows NT 10.0; Win64; x64) AppleWebKit/537.36 (KHTML, like Gecko) Chrome/137.0.0.0 Safari/537.36" version="27.1.4">
  <diagram name="Page-1" id="FYOwgNXaRJl_69Y85xfS">
    <mxGraphModel dx="1828" dy="2068" grid="1" gridSize="10" guides="1" tooltips="1" connect="1" arrows="1" fold="1" page="1" pageScale="1" pageWidth="850" pageHeight="1100" math="0" shadow="0">
      <root>
        <mxCell id="0" />
        <mxCell id="1" parent="0" />
        <mxCell id="5xi-BNaDQISyRTZjNF9I-16" value="" style="edgeStyle=orthogonalEdgeStyle;rounded=0;orthogonalLoop=1;jettySize=auto;html=1;" edge="1" parent="1" source="5xi-BNaDQISyRTZjNF9I-1" target="5xi-BNaDQISyRTZjNF9I-2">
          <mxGeometry relative="1" as="geometry" />
        </mxCell>
        <mxCell id="5xi-BNaDQISyRTZjNF9I-1" value="MyApp" style="rounded=1;whiteSpace=wrap;html=1;" vertex="1" parent="1">
          <mxGeometry x="365" y="-1070" width="120" height="60" as="geometry" />
        </mxCell>
        <mxCell id="5xi-BNaDQISyRTZjNF9I-17" value="" style="edgeStyle=orthogonalEdgeStyle;rounded=0;orthogonalLoop=1;jettySize=auto;html=1;" edge="1" parent="1" source="5xi-BNaDQISyRTZjNF9I-2" target="5xi-BNaDQISyRTZjNF9I-3">
          <mxGeometry relative="1" as="geometry" />
        </mxCell>
        <mxCell id="5xi-BNaDQISyRTZjNF9I-2" value="MaterialApp" style="rounded=1;whiteSpace=wrap;html=1;" vertex="1" parent="1">
          <mxGeometry x="365" y="-980" width="120" height="60" as="geometry" />
        </mxCell>
        <mxCell id="5xi-BNaDQISyRTZjNF9I-18" value="" style="edgeStyle=orthogonalEdgeStyle;rounded=0;orthogonalLoop=1;jettySize=auto;html=1;" edge="1" parent="1" source="5xi-BNaDQISyRTZjNF9I-3">
          <mxGeometry relative="1" as="geometry">
            <mxPoint x="425.0000000000002" y="-800" as="targetPoint" />
          </mxGeometry>
        </mxCell>
        <mxCell id="5xi-BNaDQISyRTZjNF9I-3" value="Home" style="rounded=1;whiteSpace=wrap;html=1;" vertex="1" parent="1">
          <mxGeometry x="365" y="-890" width="120" height="60" as="geometry" />
        </mxCell>
        <mxCell id="5xi-BNaDQISyRTZjNF9I-20" value="" style="edgeStyle=orthogonalEdgeStyle;rounded=0;orthogonalLoop=1;jettySize=auto;html=1;" edge="1" parent="1" source="5xi-BNaDQISyRTZjNF9I-6" target="5xi-BNaDQISyRTZjNF9I-9">
          <mxGeometry relative="1" as="geometry" />
        </mxCell>
        <mxCell id="5xi-BNaDQISyRTZjNF9I-73" style="edgeStyle=orthogonalEdgeStyle;rounded=0;orthogonalLoop=1;jettySize=auto;html=1;exitX=0.5;exitY=1;exitDx=0;exitDy=0;entryX=0.5;entryY=0;entryDx=0;entryDy=0;" edge="1" parent="1" source="5xi-BNaDQISyRTZjNF9I-6" target="5xi-BNaDQISyRTZjNF9I-72">
          <mxGeometry relative="1" as="geometry" />
        </mxCell>
        <mxCell id="5xi-BNaDQISyRTZjNF9I-6" value="Scaffold" style="rounded=1;whiteSpace=wrap;html=1;" vertex="1" parent="1">
          <mxGeometry x="365" y="-800" width="120" height="60" as="geometry" />
        </mxCell>
        <mxCell id="5xi-BNaDQISyRTZjNF9I-9" value="AppBar" style="rounded=1;whiteSpace=wrap;html=1;" vertex="1" parent="1">
          <mxGeometry x="245" y="-700" width="120" height="60" as="geometry" />
        </mxCell>
        <mxCell id="5xi-BNaDQISyRTZjNF9I-82" style="edgeStyle=orthogonalEdgeStyle;rounded=0;orthogonalLoop=1;jettySize=auto;html=1;exitX=0.5;exitY=1;exitDx=0;exitDy=0;entryX=0.5;entryY=0;entryDx=0;entryDy=0;" edge="1" parent="1" source="5xi-BNaDQISyRTZjNF9I-72" target="5xi-BNaDQISyRTZjNF9I-74">
          <mxGeometry relative="1" as="geometry" />
        </mxCell>
        <mxCell id="5xi-BNaDQISyRTZjNF9I-87" style="edgeStyle=orthogonalEdgeStyle;rounded=0;orthogonalLoop=1;jettySize=auto;html=1;exitX=0.5;exitY=1;exitDx=0;exitDy=0;entryX=0.5;entryY=0;entryDx=0;entryDy=0;" edge="1" parent="1" source="5xi-BNaDQISyRTZjNF9I-72" target="5xi-BNaDQISyRTZjNF9I-75">
          <mxGeometry relative="1" as="geometry" />
        </mxCell>
        <mxCell id="5xi-BNaDQISyRTZjNF9I-72" value="Column" style="rounded=1;whiteSpace=wrap;html=1;" vertex="1" parent="1">
          <mxGeometry x="485" y="-700" width="120" height="60" as="geometry" />
        </mxCell>
        <mxCell id="5xi-BNaDQISyRTZjNF9I-83" value="" style="edgeStyle=orthogonalEdgeStyle;rounded=0;orthogonalLoop=1;jettySize=auto;html=1;" edge="1" parent="1" source="5xi-BNaDQISyRTZjNF9I-74" target="5xi-BNaDQISyRTZjNF9I-76">
          <mxGeometry relative="1" as="geometry" />
        </mxCell>
        <mxCell id="5xi-BNaDQISyRTZjNF9I-74" value="Expanded" style="rounded=1;whiteSpace=wrap;html=1;" vertex="1" parent="1">
          <mxGeometry x="390" y="-600" width="120" height="60" as="geometry" />
        </mxCell>
        <mxCell id="5xi-BNaDQISyRTZjNF9I-88" value="" style="edgeStyle=orthogonalEdgeStyle;rounded=0;orthogonalLoop=1;jettySize=auto;html=1;" edge="1" parent="1" source="5xi-BNaDQISyRTZjNF9I-75" target="5xi-BNaDQISyRTZjNF9I-80">
          <mxGeometry relative="1" as="geometry" />
        </mxCell>
        <mxCell id="5xi-BNaDQISyRTZjNF9I-75" value="Expanded" style="rounded=1;whiteSpace=wrap;html=1;" vertex="1" parent="1">
          <mxGeometry x="580" y="-600" width="120" height="60" as="geometry" />
        </mxCell>
        <mxCell id="5xi-BNaDQISyRTZjNF9I-84" value="" style="edgeStyle=orthogonalEdgeStyle;rounded=0;orthogonalLoop=1;jettySize=auto;html=1;" edge="1" parent="1" source="5xi-BNaDQISyRTZjNF9I-76" target="5xi-BNaDQISyRTZjNF9I-79">
          <mxGeometry relative="1" as="geometry" />
        </mxCell>
        <mxCell id="5xi-BNaDQISyRTZjNF9I-85" style="edgeStyle=orthogonalEdgeStyle;rounded=0;orthogonalLoop=1;jettySize=auto;html=1;exitX=0.5;exitY=1;exitDx=0;exitDy=0;entryX=0.5;entryY=0;entryDx=0;entryDy=0;" edge="1" parent="1" source="5xi-BNaDQISyRTZjNF9I-76" target="5xi-BNaDQISyRTZjNF9I-77">
          <mxGeometry relative="1" as="geometry">
            <Array as="points">
              <mxPoint x="450" y="-430" />
              <mxPoint x="305" y="-430" />
            </Array>
          </mxGeometry>
        </mxCell>
        <mxCell id="5xi-BNaDQISyRTZjNF9I-76" value="Image&lt;div&gt;network&lt;/div&gt;" style="rounded=1;whiteSpace=wrap;html=1;" vertex="1" parent="1">
          <mxGeometry x="390" y="-500" width="120" height="60" as="geometry" />
        </mxCell>
        <mxCell id="5xi-BNaDQISyRTZjNF9I-86" value="" style="edgeStyle=orthogonalEdgeStyle;rounded=0;orthogonalLoop=1;jettySize=auto;html=1;" edge="1" parent="1" source="5xi-BNaDQISyRTZjNF9I-77" target="5xi-BNaDQISyRTZjNF9I-78">
          <mxGeometry relative="1" as="geometry" />
        </mxCell>
        <mxCell id="5xi-BNaDQISyRTZjNF9I-77" value="Center" style="rounded=1;whiteSpace=wrap;html=1;" vertex="1" parent="1">
          <mxGeometry x="245" y="-410" width="120" height="60" as="geometry" />
        </mxCell>
        <mxCell id="5xi-BNaDQISyRTZjNF9I-78" value="CircularProgressIndicator" style="rounded=1;whiteSpace=wrap;html=1;" vertex="1" parent="1">
          <mxGeometry x="220" y="-320" width="170" height="60" as="geometry" />
        </mxCell>
        <mxCell id="5xi-BNaDQISyRTZjNF9I-79" value="Icon" style="rounded=1;whiteSpace=wrap;html=1;" vertex="1" parent="1">
          <mxGeometry x="390" y="-410" width="120" height="60" as="geometry" />
        </mxCell>
        <mxCell id="5xi-BNaDQISyRTZjNF9I-89" value="" style="edgeStyle=orthogonalEdgeStyle;rounded=0;orthogonalLoop=1;jettySize=auto;html=1;" edge="1" parent="1" source="5xi-BNaDQISyRTZjNF9I-80" target="5xi-BNaDQISyRTZjNF9I-81">
          <mxGeometry relative="1" as="geometry" />
        </mxCell>
        <mxCell id="5xi-BNaDQISyRTZjNF9I-80" value="Container" style="rounded=1;whiteSpace=wrap;html=1;" vertex="1" parent="1">
          <mxGeometry x="580" y="-500" width="120" height="60" as="geometry" />
        </mxCell>
        <mxCell id="5xi-BNaDQISyRTZjNF9I-93" value="" style="edgeStyle=orthogonalEdgeStyle;rounded=0;orthogonalLoop=1;jettySize=auto;html=1;" edge="1" parent="1" source="5xi-BNaDQISyRTZjNF9I-81" target="5xi-BNaDQISyRTZjNF9I-92">
          <mxGeometry relative="1" as="geometry" />
        </mxCell>
        <mxCell id="5xi-BNaDQISyRTZjNF9I-94" style="edgeStyle=orthogonalEdgeStyle;rounded=0;orthogonalLoop=1;jettySize=auto;html=1;exitX=0.5;exitY=1;exitDx=0;exitDy=0;entryX=0.5;entryY=0;entryDx=0;entryDy=0;" edge="1" parent="1" source="5xi-BNaDQISyRTZjNF9I-81" target="5xi-BNaDQISyRTZjNF9I-91">
          <mxGeometry relative="1" as="geometry">
            <Array as="points">
              <mxPoint x="640" y="-340" />
              <mxPoint x="790" y="-340" />
            </Array>
          </mxGeometry>
        </mxCell>
        <mxCell id="5xi-BNaDQISyRTZjNF9I-98" style="edgeStyle=orthogonalEdgeStyle;rounded=0;orthogonalLoop=1;jettySize=auto;html=1;exitX=0.5;exitY=1;exitDx=0;exitDy=0;entryX=0.5;entryY=0;entryDx=0;entryDy=0;" edge="1" parent="1" source="5xi-BNaDQISyRTZjNF9I-81" target="5xi-BNaDQISyRTZjNF9I-97">
          <mxGeometry relative="1" as="geometry">
            <Array as="points">
              <mxPoint x="640" y="-340" />
              <mxPoint x="940" y="-340" />
            </Array>
          </mxGeometry>
        </mxCell>
        <mxCell id="5xi-BNaDQISyRTZjNF9I-99" style="edgeStyle=orthogonalEdgeStyle;rounded=0;orthogonalLoop=1;jettySize=auto;html=1;exitX=0.5;exitY=1;exitDx=0;exitDy=0;" edge="1" parent="1" source="5xi-BNaDQISyRTZjNF9I-81" target="5xi-BNaDQISyRTZjNF9I-90">
          <mxGeometry relative="1" as="geometry">
            <Array as="points">
              <mxPoint x="640" y="-340" />
              <mxPoint x="1090" y="-340" />
            </Array>
          </mxGeometry>
        </mxCell>
        <mxCell id="5xi-BNaDQISyRTZjNF9I-81" value="Column" style="rounded=1;whiteSpace=wrap;html=1;" vertex="1" parent="1">
          <mxGeometry x="580" y="-410" width="120" height="60" as="geometry" />
        </mxCell>
        <mxCell id="5xi-BNaDQISyRTZjNF9I-90" value="Text" style="rounded=1;whiteSpace=wrap;html=1;" vertex="1" parent="1">
          <mxGeometry x="1030" y="-320" width="120" height="60" as="geometry" />
        </mxCell>
        <mxCell id="5xi-BNaDQISyRTZjNF9I-91" value="Text" style="rounded=1;whiteSpace=wrap;html=1;" vertex="1" parent="1">
          <mxGeometry x="730" y="-320" width="120" height="60" as="geometry" />
        </mxCell>
        <mxCell id="5xi-BNaDQISyRTZjNF9I-92" value="Text" style="rounded=1;whiteSpace=wrap;html=1;" vertex="1" parent="1">
          <mxGeometry x="580" y="-320" width="120" height="60" as="geometry" />
        </mxCell>
        <mxCell id="5xi-BNaDQISyRTZjNF9I-97" value="SizedBox" style="rounded=1;whiteSpace=wrap;html=1;" vertex="1" parent="1">
          <mxGeometry x="880" y="-320" width="120" height="60" as="geometry" />
        </mxCell>
      </root>
    </mxGraphModel>
  </diagram>
</mxfile>
